<svg width="512" height="512" viewBox="0 0 512 512" fill="none" xmlns="http://www.w3.org/2000/svg">
<rect width="512" height="512" fill="#FCFCFC"/>
<path d="M355.225 408H147L160.28 361.895H309.621C312.962 351.256 315.301 339.35 316.637 326.177C318.141 312.835 318.892 293.583 318.892 268.419V251.194C318.892 229.746 318.141 212.266 316.637 198.756C315.134 185.245 312.378 176.548 308.368 172.664C304.526 168.779 297.594 166.837 287.571 166.837H177.82C169.802 166.837 163.371 163.966 158.526 158.224C153.849 152.313 151.51 144.967 151.51 136.185C151.51 128.417 153.348 120.986 157.023 113.893C160.698 106.631 164.373 103 168.048 103C170.053 103 171.055 104.52 171.055 107.56V112.373C171.055 118.115 174.814 120.986 182.331 120.986H293.585C307.784 120.986 317.974 122.337 324.154 125.039C330.502 127.572 335.096 132.048 337.936 138.465C340.943 144.714 343.031 157.211 344.2 175.957C345.37 194.703 345.954 217.924 345.954 245.62C345.954 285.983 344.451 314.524 341.444 331.243C340.442 335.128 337.936 340.363 333.927 346.949C330.085 353.536 326.744 358.518 323.904 361.895H366L355.225 408ZM221.169 251.7C221.169 245.789 223.174 240.976 227.183 237.261C231.192 233.377 235.87 231.434 241.215 231.434C246.561 231.434 251.238 233.377 255.247 237.261C259.256 240.976 261.261 245.789 261.261 251.7C261.261 257.104 259.256 261.749 255.247 265.633C251.238 269.348 246.561 271.206 241.215 271.206C235.87 271.206 231.192 269.348 227.183 265.633C223.174 261.749 221.169 257.104 221.169 251.7Z" fill="#111316"/>
</svg>
